<svg xmlns="http://www.w3.org/2000/svg" width="150" height="150" viewBox="0 0 150 150">
  <path id="Icon_ionic-ios-close-circle" data-name="Icon ionic-ios-close-circle" d="M78.375,3.375a75,75,0,1,0,75,75A74.989,74.989,0,0,0,78.375,3.375Zm19,102.151-19-19-19,19a5.762,5.762,0,1,1-8.149-8.149l19-19-19-19a5.762,5.762,0,1,1,8.149-8.149l19,19,19-19a5.762,5.762,0,0,1,8.149,8.149l-19,19,19,19a5.789,5.789,0,0,1,0,8.149A5.724,5.724,0,0,1,97.377,105.526Z" transform="translate(-3.375 -3.375)" fill="#d2d2d2"/>
</svg>
