<svg width="70" height="70" viewBox="0 0 70 70" fill="none" xmlns="http://www.w3.org/2000/svg">
  <rect width="70" height="70" rx="35" fill="#F4F4F5"/>
  <mask id="mask0_4070_8730" style="mask-type:luminance" maskUnits="userSpaceOnUse" x="21" y="19" width="30" height="32">
    <path d="M50.3333 19H21V51H50.3333V19Z" fill="white"/>
  </mask>
  <g mask="url(#mask0_4070_8730)">
    <path d="M43.6667 36.3333C42.3481 36.3333 41.0592 36.7242 39.9629 37.4568C38.8665 38.1893 38.012 39.2305 37.5075 40.4487C37.0029 41.6669 36.8709 43.0073 37.1281 44.3005C37.3853 45.5937 38.0203 46.7816 38.9526 47.7139C39.885 48.6463 41.0729 49.2813 42.3661 49.5385C43.6593 49.7957 44.9997 49.6637 46.2179 49.1591C47.4361 48.6545 48.4773 47.8001 49.2098 46.7037C49.9424 45.6074 50.3333 44.3185 50.3333 42.9999C50.3333 41.2318 49.631 39.5361 48.3807 38.2859C47.1305 37.0356 45.4348 36.3333 43.6667 36.3333ZM43.2667 46.5999C43.0174 46.8442 42.6823 46.981 42.3333 46.981C41.9843 46.981 41.6493 46.8442 41.4 46.5999L38.7333 43.9333L40.6 42.0666L42.3333 43.7999L46.7333 39.3999L48.6 41.2666L43.2667 46.5999Z" fill="url(#paint0_linear_4070_8730)"/>
    <path d="M35.6667 43C35.6667 40.8783 36.5095 38.8434 38.0098 37.3431C39.5101 35.8429 41.5449 35 43.6667 35H45V20.3333C45 19.9797 44.8595 19.6406 44.6095 19.3905C44.3594 19.1405 44.0203 19 43.6667 19H22.3333C21.9797 19 21.6406 19.1405 21.3905 19.3905C21.1405 19.6406 21 19.9797 21 20.3333V49.6667C21 50.0203 21.1405 50.3594 21.3905 50.6095C21.6406 50.8595 21.9797 51 22.3333 51H43.6667C41.5449 51 39.5101 50.1571 38.0098 48.6569C36.5095 47.1566 35.6667 45.1217 35.6667 43ZM30.3333 24.3333H39.6667V27H30.3333V24.3333ZM30.3333 31H37V33.6667H30.3333V31ZM26.3333 40.3333C26.0696 40.3333 25.8118 40.2551 25.5926 40.1086C25.3733 39.9621 25.2024 39.7539 25.1015 39.5102C25.0006 39.2666 24.9742 38.9985 25.0256 38.7399C25.0771 38.4812 25.2041 38.2437 25.3905 38.0572C25.577 37.8707 25.8146 37.7437 26.0732 37.6923C26.3319 37.6408 26.5999 37.6672 26.8436 37.7682C27.0872 37.8691 27.2955 38.04 27.442 38.2592C27.5885 38.4785 27.6667 38.7363 27.6667 39C27.6667 39.3536 27.5262 39.6928 27.2761 39.9428C27.0261 40.1929 26.687 40.3333 26.3333 40.3333ZM26.3333 33.6667C26.0696 33.6667 25.8118 33.5885 25.5926 33.442C25.3733 33.2955 25.2024 33.0872 25.1015 32.8436C25.0006 32.5999 24.9742 32.3319 25.0256 32.0732C25.0771 31.8146 25.2041 31.577 25.3905 31.3905C25.577 31.2041 25.8146 31.0771 26.0732 31.0256C26.3319 30.9742 26.5999 31.0006 26.8436 31.1015C27.0872 31.2024 27.2955 31.3733 27.442 31.5926C27.5885 31.8118 27.6667 32.0696 27.6667 32.3333C27.6667 32.687 27.5262 33.0261 27.2761 33.2761C27.0261 33.5262 26.687 33.6667 26.3333 33.6667ZM26.3333 27C26.0696 27 25.8118 26.9218 25.5926 26.7753C25.3733 26.6288 25.2024 26.4205 25.1015 26.1769C25.0006 25.9333 24.9742 25.6652 25.0256 25.4065C25.0771 25.1479 25.2041 24.9103 25.3905 24.7239C25.577 24.5374 25.8146 24.4104 26.0732 24.359C26.3319 24.3075 26.5999 24.3339 26.8436 24.4348C27.0872 24.5357 27.2955 24.7066 27.442 24.9259C27.5885 25.1452 27.6667 25.403 27.6667 25.6667C27.6667 26.0203 27.5262 26.3594 27.2761 26.6095C27.0261 26.8595 26.687 27 26.3333 27ZM34.3333 40.3333H30.3333V37.6667H34.3333V40.3333Z" fill="url(#paint1_linear_4070_8730)"/>
  </g>
  <defs>
    <linearGradient id="paint0_linear_4070_8730" x1="43.6667" y1="49.6666" x2="38.1064" y2="36.1792" gradientUnits="userSpaceOnUse">
      <stop stop-color="#F7990D"/>
      <stop offset="0.92" stop-color="#F04251"/>
    </linearGradient>
    <linearGradient id="paint1_linear_4070_8730" x1="33" y1="51" x2="17.0133" y2="21.9162" gradientUnits="userSpaceOnUse">
      <stop stop-color="#F7990D"/>
      <stop offset="0.460711" stop-color="#F04251"/>
    </linearGradient>
  </defs>
</svg>
