<svg xmlns="http://www.w3.org/2000/svg" width="64" height="64" viewBox="0 0 70 70"><g id="Group_71039" data-name="Group 71039" transform="translate(-14 -14)"><path id="Path_10479" data-name="Path 10479" d="M35,0A35,35,0,1,1,0,35,35,35,0,0,1,35,0Z" transform="translate(14 14)" fill="#e4e4e4"></path> <path id="Icon_awesome-user-alt" data-name="Icon awesome-user-alt" d="M18,20.25A10.125,10.125,0,1,0,7.875,10.125,10.128,10.128,0,0,0,18,20.25Zm9,2.25H23.126a12.24,12.24,0,0,1-10.252,0H9a9,9,0,0,0-9,9v1.125A3.376,3.376,0,0,0,3.375,36h29.25A3.376,3.376,0,0,0,36,32.625V31.5A9,9,0,0,0,27,22.5Z" transform="translate(31 29)" fill="#929191"></path></g></svg>
