<svg width="70" height="70" viewBox="0 0 70 70" fill="none" xmlns="http://www.w3.org/2000/svg">
  <rect width="70" height="70" rx="35" fill="#F4F4F5"/>
  <g clip-path="url(#clip0_4070_8777)">
    <path d="M35.1483 46.0534C35.1486 44.018 35.742 42.0269 36.8561 40.3235C37.9702 38.6202 39.5566 37.2785 41.4213 36.4626C43.2859 35.6467 45.348 35.392 47.3551 35.7296C49.3623 36.0672 51.2275 36.9825 52.7226 38.3636C52.7721 34.7857 52.7424 31.2079 52.6335 27.63C52.5742 25.1719 51.1863 22.7041 48.861 21.4847C47.6661 20.8531 46.4281 20.2453 45.176 19.6693C40.2286 21.2695 34.4344 23.3803 28.5904 25.9935C28.0285 26.2419 27.5471 26.6422 27.2006 27.1494C26.854 27.6566 26.6559 28.2506 26.6288 28.8643C26.5375 31.6846 26.5093 34.5955 26.5464 37.4737C26.5494 37.5581 26.5252 37.6412 26.4775 37.7109C26.4297 37.7806 26.3609 37.8331 26.2811 37.8607C26.2013 37.8884 26.1147 37.8897 26.0341 37.8645C25.9534 37.8394 25.883 37.789 25.8331 37.7208C25.2147 36.9291 24.6105 36.1464 24.0207 35.3725C23.9772 35.312 23.9125 35.2701 23.8395 35.2551C23.7665 35.2402 23.6905 35.2532 23.6266 35.2916C23.1679 35.5648 22.7174 35.8342 22.2751 36.0999C22.0272 36.2483 21.7222 36.0502 21.7207 35.7451C21.7058 32.878 21.7771 30.0036 21.9307 27.2174C21.9953 26.0425 22.7323 24.9359 23.8226 24.3971C29.4276 21.6287 35.4074 19.3673 40.5099 17.6936C39.3224 17.229 38.1416 16.803 36.989 16.3993C35.4348 15.8656 33.7471 15.8656 32.1929 16.3993C28.3469 17.7263 24.1469 19.4586 20.3202 21.4847C17.9956 22.7041 16.6092 25.1719 16.5476 27.63C16.3962 32.5433 16.3962 37.4566 16.5476 42.3699C16.607 44.828 17.9956 47.2958 20.3202 48.5152C24.1469 50.5414 28.3469 52.2736 32.1952 53.5999C33.7493 54.1336 35.437 54.1336 36.9912 53.5999C37.3272 53.4841 37.6663 53.3646 38.0087 53.2414C36.166 51.3026 35.1416 48.7281 35.1483 46.0534Z" fill="url(#paint0_linear_4070_8777)"/>
    <path d="M45.6185 38.1074C44.0468 38.1076 42.5104 38.5738 41.2037 39.4471C39.897 40.3204 38.8786 41.5616 38.2772 43.0137C37.6759 44.4658 37.5187 46.0636 37.8254 47.6051C38.1322 49.1465 38.8892 50.5624 40.0006 51.6736C41.1121 52.7849 42.5281 53.5416 44.0696 53.8481C45.6112 54.1546 47.2089 53.997 48.6609 53.3954C50.1129 52.7938 51.3539 51.7752 52.227 50.4683C53.1 49.1614 53.566 47.625 53.5658 46.0533C53.5657 45.0097 53.3601 43.9764 52.9606 43.0123C52.5612 42.0482 51.9758 41.1722 51.2378 40.4344C50.4998 39.6966 49.6237 39.1113 48.6596 38.712C47.6954 38.3128 46.662 38.1073 45.6185 38.1074ZM50.151 44.7381L45.3743 49.7538C45.2443 49.8906 45.088 49.9996 44.9148 50.0743C44.7416 50.1491 44.5551 50.188 44.3664 50.1887H44.3597C44.1722 50.1886 43.9866 50.151 43.8138 50.0779C43.6411 50.0049 43.4848 49.898 43.3541 49.7635L40.8195 47.1525C40.5606 46.8857 40.4184 46.5271 40.4239 46.1555C40.4295 45.7839 40.5825 45.4297 40.8492 45.1708C41.1159 44.912 41.4745 44.7697 41.8461 44.7753C42.2178 44.7808 42.572 44.9338 42.8308 45.2005L44.3516 46.7658L48.1226 42.8055C48.3819 42.5514 48.7297 42.4079 49.0927 42.4051C49.4557 42.4024 49.8056 42.5406 50.0687 42.7908C50.3319 43.0409 50.4876 43.3834 50.5032 43.7461C50.5189 44.1087 50.3931 44.4633 50.1525 44.7352L50.151 44.7381Z" fill="url(#paint1_linear_4070_8777)"/>
  </g>
  <defs>
    <linearGradient id="paint0_linear_4070_8777" x1="34.5899" y1="15.999" x2="34.5899" y2="54.0001" gradientUnits="userSpaceOnUse">
      <stop offset="0.28" stop-color="#F04251"/>
      <stop offset="1" stop-color="#F7990D"/>
    </linearGradient>
    <linearGradient id="paint1_linear_4070_8777" x1="45.6192" y1="38.1074" x2="45.6192" y2="54.0006" gradientUnits="userSpaceOnUse">
      <stop offset="0.28" stop-color="#F04251"/>
      <stop offset="1" stop-color="#F7990D"/>
    </linearGradient>
    <clipPath id="clip0_4070_8777">
      <rect width="38" height="38" fill="white" transform="translate(16 16)"/>
    </clipPath>
  </defs>
</svg>
