<svg xmlns="http://www.w3.org/2000/svg" width="150" height="150" viewBox="0 0 150 150">
  <path id="Icon_awesome-check-circle" data-name="Icon awesome-check-circle" d="M150.563,75.563a75,75,0,1,1-75-75A75,75,0,0,1,150.563,75.563ZM66.887,115.274l55.645-55.645a4.839,4.839,0,0,0,0-6.843l-6.843-6.843a4.839,4.839,0,0,0-6.843,0L63.466,91.324,42.279,70.137a4.839,4.839,0,0,0-6.843,0L28.593,76.98a4.839,4.839,0,0,0,0,6.843l31.452,31.452A4.839,4.839,0,0,0,66.887,115.274Z" transform="translate(-0.563 -0.563)" fill="#87b44c"/>
</svg>
