<svg xmlns="http://www.w3.org/2000/svg" width="20" height="21" viewBox="0 0 20 21" fill="none">
  <mask id="mask0_739_4075" style="mask-type:luminance" maskUnits="userSpaceOnUse" x="0" y="0" width="20" height="21">
    <path d="M20 0.5H0V20.5H20V0.5Z" fill="white"/>
  </mask>
  <g mask="url(#mask0_739_4075)">
    <path d="M10 0.5C8.02219 0.5 6.08879 1.08649 4.4443 2.1853C2.79981 3.28412 1.51809 4.8459 0.761209 6.67317C0.00433284 8.50043 -0.193701 10.5111 0.192152 12.4509C0.578004 14.3907 1.53041 16.1725 2.92894 17.5711C4.32746 18.9696 6.10929 19.922 8.0491 20.3079C9.98891 20.6937 11.9996 20.4957 13.8268 19.7388C15.6541 18.9819 17.2159 17.7002 18.3147 16.0557C19.4135 14.4112 20 12.4778 20 10.5C20 7.84784 18.9464 5.3043 17.0711 3.42893C15.1957 1.55357 12.6522 0.5 10 0.5ZM14.772 11.924H11.425V15.272C11.425 15.6499 11.2749 16.0124 11.0076 16.2796C10.7404 16.5469 10.3779 16.697 10 16.697C9.62207 16.697 9.25962 16.5469 8.99238 16.2796C8.72514 16.0124 8.575 15.6499 8.575 15.272V11.924H5.228C5.03776 11.929 4.84843 11.8959 4.6712 11.8266C4.49396 11.7573 4.33241 11.6532 4.19607 11.5204C4.05973 11.3876 3.95136 11.2289 3.87737 11.0535C3.80338 10.8782 3.76526 10.6898 3.76526 10.4995C3.76526 10.3092 3.80338 10.1208 3.87737 9.94547C3.95136 9.77013 4.05973 9.61139 4.19607 9.47861C4.33241 9.34584 4.49396 9.24172 4.6712 9.1724C4.84843 9.10308 5.03776 9.06996 5.228 9.075H8.575V5.727C8.575 5.34907 8.72514 4.98661 8.99238 4.71937C9.25962 4.45213 9.62207 4.302 10 4.302C10.3779 4.302 10.7404 4.45213 11.0076 4.71937C11.2749 4.98661 11.425 5.34907 11.425 5.727V9.075H14.772C14.9622 9.06996 15.1516 9.10308 15.3288 9.1724C15.506 9.24172 15.6676 9.34584 15.8039 9.47861C15.9403 9.61139 16.0486 9.77013 16.1226 9.94547C16.1966 10.1208 16.2347 10.3092 16.2347 10.4995C16.2347 10.6898 16.1966 10.8782 16.1226 11.0535C16.0486 11.2289 15.9403 11.3876 15.8039 11.5204C15.6676 11.6532 15.506 11.7573 15.3288 11.8266C15.1516 11.8959 14.9622 11.929 14.772 11.924Z" fill="#52525B"/>
  </g>
</svg>
