<svg width="32" height="32" viewBox="0 0 32 32" fill="none" xmlns="http://www.w3.org/2000/svg">
  <path d="M27.8658 15.9874L18.7907 6.91902C18.6311 6.76042 18.5044 6.57183 18.418 6.36409C18.3316 6.15636 18.2871 5.93358 18.2871 5.70858C18.2871 5.48359 18.3316 5.26081 18.418 5.05307C18.5044 4.84534 18.6311 4.65675 18.7907 4.49815C19.114 4.17897 19.5501 4 20.0045 4C20.4589 4 20.8949 4.17897 21.2183 4.49815L31.5011 14.7685C31.8118 15.0804 31.9904 15.5 31.9996 15.9402C32.0089 16.3804 31.8481 16.8071 31.5507 17.1318L21.2251 27.48C21.0669 27.6429 20.878 27.7727 20.6692 27.862C20.4604 27.9512 20.236 27.9981 20.009 27.9999C19.7819 28.0018 19.5568 27.9585 19.3466 27.8726C19.1365 27.7867 18.9455 27.6599 18.7847 27.4996C18.6239 27.3392 18.4966 27.1486 18.4101 26.9387C18.3236 26.7287 18.2797 26.5037 18.2809 26.2767C18.2821 26.0497 18.3284 25.8251 18.417 25.6161C18.5057 25.4071 18.635 25.2178 18.7974 25.0591L27.8658 15.9874Z" fill="#A1A1AA"/>
</svg>
