<svg xmlns="http://www.w3.org/2000/svg" width="26.401" height="23.101" viewBox="0 0 26.401 23.101">
    <g id="Group_71076" data-name="Group 71076" transform="translate(0 -32)">
        <g id="Group_71073" data-name="Group 71073" transform="translate(0 32)">
            <g id="Group_71072" data-name="Group 71072">
                <path id="Path_10500" data-name="Path 10500" d="M26.376,39.226l-1.493-5.977A1.649,1.649,0,0,0,23.282,32H3.12a1.652,1.652,0,0,0-1.6,1.249L.025,39.226a.807.807,0,0,0-.025.2A4.031,4.031,0,0,0,3.919,43.55a3.85,3.85,0,0,0,3.094-1.6,3.8,3.8,0,0,0,6.188,0,3.8,3.8,0,0,0,6.188,0,3.848,3.848,0,0,0,3.094,1.6A4.031,4.031,0,0,0,26.4,39.425.807.807,0,0,0,26.376,39.226Z" transform="translate(0 -32)" fill="#9999A5"/>
            </g>
        </g>
        <g id="Group_71075" data-name="Group 71075" transform="translate(1.65 44.23)">
            <g id="Group_71074" data-name="Group 71074">
                <path id="Path_10501" data-name="Path 10501" d="M52.832,270.154a5.4,5.4,0,0,1-3.094-.97,5.553,5.553,0,0,1-6.188,0,5.553,5.553,0,0,1-6.188,0,5.357,5.357,0,0,1-5.363.457V278.4a1.651,1.651,0,0,0,1.65,1.65h6.6v-6.6h6.6v6.6h6.6a1.651,1.651,0,0,0,1.65-1.65v-8.763A5.353,5.353,0,0,1,52.832,270.154Z" transform="translate(-32 -269.184)" fill="#9999A5"/>
            </g>
        </g>
    </g>
</svg>
