<svg xmlns="http://www.w3.org/2000/svg" width="22" height="22" viewBox="0 0 22 22">
  <path id="Icon_material-shopping-cart" data-name="Icon material-shopping-cart" d="M8.1,20.6a2.2,2.2,0,1,0,2.2,2.2A2.2,2.2,0,0,0,8.1,20.6ZM1.5,3V5.2H3.7l3.96,8.349L6.175,16.244A2.127,2.127,0,0,0,5.9,17.3a2.206,2.206,0,0,0,2.2,2.2H21.3V17.3H8.562a.272.272,0,0,1-.275-.275l.033-.132L9.31,15.1H17.5a2.19,2.19,0,0,0,1.925-1.133l3.938-7.139A1.075,1.075,0,0,0,23.5,6.3a1.1,1.1,0,0,0-1.1-1.1H6.131L5.1,3ZM19.1,20.6a2.2,2.2,0,1,0,2.2,2.2A2.2,2.2,0,0,0,19.1,20.6Z" transform="translate(-1.5 -3)" fill="#FFFFFF"/>
</svg>
