<svg width="24" height="24" viewBox="0 0 24 24" fill="none" xmlns="http://www.w3.org/2000/svg">
  <path d="M13.26 3C8.17003 2.86 4.00003 6.95 4.00003 12H2.21003C1.76003 12 1.54003 12.54 1.86003 12.85L4.65003 15.65C4.85003 15.85 5.16003 15.85 5.36003 15.65L8.15003 12.85C8.21913 12.7795 8.26582 12.6901 8.28421 12.5931C8.30261 12.4962 8.29187 12.3959 8.25338 12.305C8.21488 12.2141 8.15033 12.1366 8.06788 12.0823C7.98542 12.0281 7.88874 11.9994 7.79003 12H6.00003C6.00003 8.1 9.18003 4.95 13.1 5C16.82 5.05 19.95 8.18 20 11.9C20.05 15.81 16.9 19 13 19C11.39 19 9.90003 18.45 8.72003 17.52C8.52849 17.3691 8.28818 17.2939 8.0448 17.3086C7.80141 17.3234 7.57194 17.4271 7.40003 17.6C6.98003 18.02 7.01003 18.73 7.48003 19.09C9.05123 20.3323 10.997 21.0056 13 21C18.05 21 22.14 16.83 22 11.74C21.87 7.05 17.95 3.13 13.26 3ZM12.75 8C12.34 8 12 8.34 12 8.75V12.43C12 12.78 12.19 13.11 12.49 13.29L15.61 15.14C15.97 15.35 16.43 15.23 16.64 14.88C16.85 14.52 16.73 14.06 16.38 13.85L13.5 12.14V8.74C13.5 8.34 13.16 8 12.75 8Z" fill="#64748B"/>
</svg>
