<svg xmlns="http://www.w3.org/2000/svg" width="27.552" height="24.491" viewBox="0 0 27.552 24.491">
    <path id="Icon_awesome-shopping-cart" data-name="Icon awesome-shopping-cart" d="M25.262,14.413l2.261-9.949a1.148,1.148,0,0,0-1.119-1.4H7.615L7.177.918A1.148,1.148,0,0,0,6.052,0h-4.9A1.148,1.148,0,0,0,0,1.148v.765A1.148,1.148,0,0,0,1.148,3.061H4.491l3.36,16.428a2.679,2.679,0,1,0,3.207.41H21.086a2.678,2.678,0,1,0,3.042-.5l.264-1.161a1.148,1.148,0,0,0-1.119-1.4H10.433l-.313-1.531H24.142A1.148,1.148,0,0,0,25.262,14.413Z" fill="#9999A5"/>
</svg>
