<svg width="70" height="70" viewBox="0 0 70 70" fill="none" xmlns="http://www.w3.org/2000/svg">
  <rect width="70" height="70" rx="35" fill="#F4F4F5"/>
  <g clip-path="url(#clip0_4070_8767)">
    <mask id="mask0_4070_8767" style="mask-type:luminance" maskUnits="userSpaceOnUse" x="14" y="23" width="42" height="25">
      <path d="M56 23H14V47.5003H56V23Z" fill="white"/>
    </mask>
    <g mask="url(#mask0_4070_8767)">
      <path fill-rule="evenodd" clip-rule="evenodd" d="M43.8174 23.2376C47.4088 24.0753 48.7826 26.1694 50.505 29.0614H43.8174V23.2376ZM22.831 29.3043C22.9885 29.2819 23.1491 29.295 23.301 29.3427C23.4528 29.3904 23.592 29.4715 23.7084 29.5801C23.8248 29.6887 23.9154 29.8219 23.9736 29.97C24.0317 30.1182 24.056 30.2775 24.0445 30.4362C24.0445 30.7573 23.9172 31.0654 23.6906 31.2928C23.4639 31.5203 23.1563 31.6487 22.8352 31.6498H15.5057C15.3463 31.6498 15.1885 31.6812 15.0413 31.7421C14.894 31.8031 14.7603 31.8925 14.6476 32.0052C14.5349 32.1179 14.4455 32.2517 14.3845 32.3989C14.3235 32.5461 14.2921 32.704 14.2921 32.8633C14.2921 33.0227 14.3235 33.1805 14.3845 33.3277C14.4455 33.475 14.5349 33.6087 14.6476 33.7214C14.7603 33.8341 14.894 33.9235 15.0413 33.9845C15.1885 34.0455 15.3463 34.0769 15.5057 34.0769H26.4256C26.7474 34.0769 27.0561 34.2047 27.2837 34.4323C27.5113 34.6599 27.6391 34.9686 27.6391 35.2904C27.6391 35.6123 27.5113 35.9209 27.2837 36.1485C27.0561 36.3761 26.7474 36.504 26.4256 36.504H15.5036C15.1817 36.504 14.8731 36.6318 14.6455 36.8594C14.4179 37.087 14.29 37.3957 14.29 37.7175C14.29 38.0394 14.4179 38.3481 14.6455 38.5756C14.8731 38.8032 15.1817 38.9311 15.5036 38.9311H18.1736V42.5738C18.1736 42.8957 18.3015 43.2044 18.5291 43.4319C18.7566 43.6595 19.0653 43.7874 19.3872 43.7874H21.8289C22.0441 44.8374 22.6153 45.781 23.4459 46.4586C24.2764 47.1362 25.3154 47.5063 26.3873 47.5063C27.4592 47.5063 28.4983 47.1362 29.3288 46.4586C30.1594 45.781 30.7305 44.8374 30.9458 43.7874H43.2645C43.4797 44.8374 44.0509 45.781 44.8814 46.4586C45.712 47.1362 46.751 47.5063 47.8229 47.5063C48.8948 47.5063 49.9338 47.1362 50.7644 46.4586C51.595 45.781 52.1661 44.8374 52.3813 43.7874H54.4975C54.8193 43.7874 55.128 43.6595 55.3556 43.4319C55.5832 43.2044 55.711 42.8957 55.711 42.5738V35.2904C55.711 31.7304 51.9552 31.4938 51.952 31.4885H42.6049C42.283 31.4885 41.9743 31.3607 41.7467 31.1331C41.5192 30.9055 41.3913 30.5968 41.3913 30.275V22.9937H19.3872C19.0653 22.9937 18.7566 23.1215 18.5291 23.3491C18.3015 23.5767 18.1736 23.8854 18.1736 24.2072V26.8772H16.7171C16.5578 26.8772 16.4 26.9086 16.2527 26.9696C16.1055 27.0306 15.9717 27.12 15.859 27.2327C15.7463 27.3454 15.657 27.4791 15.596 27.6264C15.535 27.7736 15.5036 27.9314 15.5036 28.0908C15.5036 28.2501 15.535 28.408 15.596 28.5552C15.657 28.7024 15.7463 28.8362 15.859 28.9489C15.9717 29.0616 16.1055 29.151 16.2527 29.212C16.4 29.2729 16.5578 29.3043 16.7171 29.3043H22.831ZM49.3961 41.2817C49.6551 41.5405 49.8462 41.8592 49.9525 42.2095C50.0589 42.5598 50.0771 42.9309 50.0057 43.2899C49.9342 43.649 49.7753 43.9849 49.543 44.2678C49.3106 44.5507 49.0121 44.7719 48.6738 44.9118C48.3355 45.0517 47.9679 45.106 47.6036 45.0698C47.2393 45.0337 46.8896 44.9082 46.5854 44.7045C46.2812 44.5008 46.032 44.2252 45.8598 43.9021C45.6877 43.579 45.5979 43.2184 45.5984 42.8523C45.5991 42.4126 45.73 41.983 45.9747 41.6176C46.2193 41.2523 46.5668 40.9676 46.9731 40.7996C47.3794 40.6315 47.8264 40.5877 48.2577 40.6735C48.6889 40.7593 49.0851 40.971 49.3961 41.2817ZM27.9574 41.2817C28.2164 41.5405 28.4075 41.8592 28.5138 42.2095C28.6202 42.5598 28.6384 42.9309 28.567 43.2899C28.4955 43.649 28.3366 43.9849 28.1042 44.2678C27.8719 44.5507 27.5734 44.7719 27.2351 44.9118C26.8968 45.0517 26.5292 45.106 26.1649 45.0698C25.8006 45.0337 25.4508 44.9082 25.1467 44.7045C24.8425 44.5008 24.5933 44.2252 24.4211 43.9021C24.2489 43.579 24.1592 43.2184 24.1597 42.8523C24.1604 42.4126 24.2913 41.983 24.536 41.6176C24.7806 41.2523 25.1281 40.9676 25.5344 40.7996C25.9407 40.6315 26.3877 40.5877 26.819 40.6735C27.2502 40.7593 27.6464 40.971 27.9574 41.2817Z" fill="url(#paint0_linear_4070_8767)"/>
    </g>
  </g>
  <defs>
    <linearGradient id="paint0_linear_4070_8767" x1="28" y1="20.5" x2="35.0005" y2="47.5063" gradientUnits="userSpaceOnUse">
      <stop offset="0.573829" stop-color="#F04251"/>
      <stop offset="1" stop-color="#F7990D"/>
    </linearGradient>
    <clipPath id="clip0_4070_8767">
      <rect width="42" height="24.5003" fill="white" transform="translate(14 23)"/>
    </clipPath>
  </defs>
</svg>
